<svg xmlns="http://www.w3.org/2000/svg" xml:space="preserve" viewBox="0 0 2122 2122"><path d="M1037.561 1489.583c-39.946 1.972-81.222 9.906-118.402 16.823 60.018-60.086 114.429-125.064 161.962-194.653 17.208 4.609 36.46 1.529 54.157.756 22.083-.965 44.139-2.659 66.156-4.571a1898 1898 0 0 0 41.44-4.066c45.959 32.171 326.566 199.422 737.018-180.033 0 0-217.68-127.198-711.669 156.385a2406 2406 0 0 1-66.789 5.116c-22.037 1.385-44.096 2.302-66.156 3.245-12.755.545-26.394-.361-39.383 1.048 20.903-32.011 40.364-64.965 58.262-98.836 1.167.018 2.436-.194 3.8-.693 41.167-15.052 78.708-39.843 115.407-63.499 21.383-13.783 42.288-28.201 62.789-43.185 70 2.217 381.345-18.334 527.122-540.15 0 0-253.25 5.918-525.803 510.03-22.963 15.96-46.303 31.405-69.874 46.402-31.391 19.973-64.851 37.154-96.217 57.231 28.394-58.071 52.249-118.719 70.997-181.818a1305 1305 0 0 0 15.481-56.703q1.095 3.158 2.207 6.33s294.392-240.093-23.628-763.647c0 0-168.158 188.229 11.953 729.468a1120 1120 0 0 1-8.003 33.17 1174 1174 0 0 1-49.153 148.887c-.651-3.728-1.361-7.202-2.002-10.242a234 234 0 0 0-3.212-13.263c9.298-30.901 46.624-202.857-216.765-350.854 0 0-29.398 133.895 199.83 342.055a297 297 0 0 1 3.51 11.802c3.358 12.222 6.117 24.855 6.11 37.586-.005 7.369-2.015 13.871-3.549 20.588-31.634 70.654-70.315 138.117-115.679 201.209-3.302-13.684-8.677-27.111-13.051-40.214a4182 4182 0 0 0-21.304-62.211q-.582-1.653-1.169-3.306c1.267.409 1.93.599 1.93.599C984.01 606.48 745.5 495.667 745.5 495.667c-71.756 512.295 177.627 666.177 256.938 701.652q2.852 8.222 5.694 16.443a4195 4195 0 0 1 21 62.294c5.594 17.031 9.879 35.742 18.314 51.839-61.415 81.969-134.255 153.986-211.784 220.748-50.579 43.556-103.56 84.036-158.793 121.136 1.016-4.777 2.005-9.56 3.057-14.312 4.097-18.525 8.133-37.056 11.969-55.636 3.286-15.915 5.44-31.9 6.704-48.003 28.152-32.757 235.467-301.759-119.608-751.677 0 0-143.368 206.498 99.354 719.458a918 918 0 0 1-.147 4.073c-2.091 53.814-17.436 115.809-28.069 163.679-49.064 31.576-99.846 60.515-152.244 86.614 3.642-7.156 6.498-14.326 8.604-19.778a242 242 0 0 0 4.348-12.267c24.622-20.62 150.424-143.875 11.368-412.295 0 0-98.05 95.797-20.656 395.598a316 316 0 0 1-2.211 7.603c-3.876 12.727-8.499 25.466-15.505 36.838-5.084 8.253-12.158 13.179-18.253 19.844-102.3 47.445-208.242 80.365-315.486 115.462-15.098 4.941-8.889 26.451 6.502 23.586 105.615-19.658 209.489-60.771 306.662-105.801a1647 1647 0 0 0 80.609-40.062c3.309-.947 6.726-1.701 10.426-1.961 12.837-.902 25.884.967 38.443 3.424q5.1 1.002 10.168 2.174c226.469 211.193 357.472 170.789 357.472 170.789-169.583-250.573-338.095-198.595-367.756-186.867a249 249 0 0 0-11.419-1.853c-2.66-.367-5.709-.77-9.003-1.126a1622 1622 0 0 0 94.44-56.896c1.873-.005 3.505-.025 4.28-.061 9.4-.43 18.813-1.499 28.191-2.246 19.735-1.573 39.451-3.3 59.172-5.031 23.342-2.05 46.48-1.634 69.824.466q3.105.28 6.203.587c475.835 309.416 699.728 195.022 699.728 195.022C1135.825 1486.92 841.451 1656.26 805.2 1679.77c-15.604-.914-31.206-.97-46.917.105-17.406 1.191-34.793 2.584-52.179 4.022a1579 1579 0 0 0 106.491-80.633c27.44-22.674 54.029-46.223 79.68-70.626.552.232 11.238-.897 13.405-1.184 9.597-1.271 19.158-3.205 28.705-4.802a5686 5686 0 0 0 58.113-10.012c23.645-4.211 47.22-5.781 71.25-5.63q2.713.018 5.425.056c500.644 267.178 713.816 133.94 713.816 133.94-433.987-377.866-713.172-180.715-745.428-155.423" style="fill:#8fa549"/><path d="M1263.134 814.106v-.002c10.87-66.804 17.01-134.249 21.506-202.081.179-2.705 4.023-2.7 4.201 0 6.506 98.325-5.177 198.408-28.123 294.646v.002q-1.403 5.88-2.858 11.743 1.095 3.158 2.207 6.33s294.392-240.093-23.628-763.646c-.045.05-168.134 188.3 11.953 729.467 5.723-25.384 10.58-50.875 14.742-76.459m110.988 213.025c33.673-24.739 65.745-51.135 97.016-78.445 37.116-32.415 73.108-66.119 109.315-99.874 2.745-2.559 6.238 1.21 4.018 4.018-57.602 72.866-127.952 136.405-200.497 194.095a1476 1476 0 0 1-47.822 36.497c70 2.217 381.344-18.334 527.122-540.149v-.001c-.177.005-253.345 6.093-525.803 510.03a1719 1719 0 0 0 36.651-26.171m-205.037 13.186c-7.917-24.817-18.883-48.749-30.538-71.959a481 481 0 0 0-2.058-4.049c-6.981-13.59-14.551-26.848-22.318-39.988l-.007-.012c-14.263-24.136-29.173-47.875-42.242-72.546l.022-.021c-10.017-16.698-20.312-33.468-30.71-49.889 10.398 16.421 20.694 33.191 30.71 49.889l.353-.353c13.639 9.074 25.128 28.492 34.653 41.427 18.77 25.493 34.508 53.603 48.784 81.799 12.028 23.755 23.252 48.652 30.287 74.501 9.298-30.901 46.624-202.857-216.765-350.854-.001 0-29.399 133.895 199.829 342.055M501.55 1725.233c7.167-25.798 11.269-52.617 14.251-79.139.043-.385.082-.771.126-1.156v-.004c1.822-16.562 2.818-33.185 3.572-49.816 1.222-26.998 1.815-54.013 4.299-80.805l.028-.008.482-.13c6.486 15.269 5.223 37.212 6.147 53.42 1.797 31.512-.457 63.508-3.976 94.824-3.001 26.741-7.286 53.817-15.64 79.511 24.622-20.62 150.424-143.875 11.368-412.295-.001 0-98.051 95.797-20.657 395.598m766.673-445.008a2187 2187 0 0 0 55.617-5.759c87.382-10.196 172.727-30.267 259.563-43.095.714-.105 1.245.22 1.503.682.363.65.188 1.571-.781 1.939-81.778 31.092-171.501 46.159-257.77 59.054-27.756 4.15-55.586 7.785-83.481 10.827 45.959 32.171 326.566 199.422 737.017-180.031l.001-.001c-.001-.001-217.68-127.199-711.669 156.384m-265.784-82.907c-13.473-38.837-27.097-77.649-41.075-116.297-30.6-84.608-68.408-166.422-100.356-250.512a1991 1991 0 0 1-3.91-10.38c-.249-.67.794-1.069 1.13-.476 45.686 81.103 79.265 167.478 114.679 253.339 16.229 39.346 31.684 78.86 46.095 118.871v.001c1.667 4.628 3.315 9.266 4.953 13.907 1.267.409 1.93.599 1.93.599C984.01 606.48 745.5 495.667 745.5 495.667c-71.755 512.294 177.628 666.177 256.939 701.651m-409.818 572.945c26.971 5.009 53.153 14.259 78.45 24.633 28.827 11.823 57.781 24.886 84.321 41.32 13.726 8.499 33.563 17.996 43.808 30.891l-.316.408-.017.022c-24.957-10.722-49.174-23.205-73.693-35.107-14.714-7.142-29.538-14.073-44.694-20.292a506 506 0 0 0-4.895-1.981c-23.592-9.385-47.861-18.081-72.68-23.817 226.393 211.122 357.383 170.817 357.472 170.789l-.002-.001c-169.582-250.571-338.093-198.593-367.754-186.865m444.94-280.68c8.814-.434 17.561-.582 26.187-.361 44.628 1.144 89.018 6.714 133.098 13.499 69.953 10.767 143.017 22.42 210.326 44.407 1.896.62 1.674 3.835-.493 3.64a925 925 0 0 1-22.677-2.338c-63.302-7.286-126.241-20.455-189.568-27.881-41.515-4.869-83.418-8.913-125.26-9.484 500.644 267.178 713.816 133.94 713.816 133.94-433.988-377.865-713.173-180.714-745.429-155.422M805.2 1679.77a475 475 0 0 1 26.612 2.342c43.802 5.058 86.974 14.073 129.781 24.509 69.15 16.857 141.194 34.934 206.751 62.744 2.079.882.46 3.723-1.428 3.387a1145 1145 0 0 1-21.203-3.986c-104.031-20.54-205.279-54.181-311.403-64.662 475.835 309.416 699.728 195.022 699.728 195.022C1135.825 1486.92 841.451 1656.26 805.2 1679.77m-130.301-285.308c-4.37-63.818-14.526-127.559-18.722-191.349a917 917 0 0 1-1.214-22.455c-.087-2.128 3.099-2.469 3.641-.492 18.629 67.952 26.651 141.069 34.109 211.122 4.747 44.574 8.212 89.396 7.195 134.255-.2 8.802-.624 17.561-1.308 26.285 28.152-32.757 235.467-301.758-119.608-751.677v.001c-.027.038-143.345 206.546 99.354 719.457 1.394-41.679-.599-83.58-3.447-125.147" style="fill:#728937"/><path d="M1236.438 161.097s-168.158 188.229 11.953 729.468c5.725-25.383 10.581-50.874 14.744-76.459 3.139-160.517 3.897-459.855-26.697-653.009m21.42 757.317q1.097 3.158 2.208 6.33s.259-6.374.652-18.075q-1.403 5.882-2.86 11.745m-400.76-98.285c-.251-.67.794-1.069 1.129-.476 45.685 81.103 79.264 167.479 114.678 253.34 16.229 39.346 31.685 78.859 46.095 118.87a2776 2776 0 0 0 6.884 14.507C984.01 606.481 745.5 495.666 745.5 495.666c25.137 98.598 69.439 220.239 115.507 334.843a1904 1904 0 0 1-3.909-10.38m614.04 128.557c122.592-112.991 291.858-276.526 392.137-405.414 0 0-253.25 5.918-525.804 510.03a1721 1721 0 0 0 36.65-26.171c33.675-24.739 65.746-51.135 97.017-78.445m-334.65 15.624a3986 3986 0 0 0-22.324-40.001c-14.263-24.136-29.174-47.875-42.241-72.546l.021-.021c-33.302-55.516-69.679-111.822-102.688-153.481 0 0-29.398 133.895 199.831 342.055-7.917-24.817-18.882-48.749-30.539-71.959a496 496 0 0 0-2.06-4.047m-620.562 680.628a3997 3997 0 0 0 3.572-49.82c1.222-26.998 1.816-54.014 4.299-80.806l.028-.008c2.627-64.688 3.116-131.726-1.619-184.67 0 0-98.05 95.798-20.655 395.599 7.166-25.798 11.269-52.617 14.251-79.139zm282.942 222.599c-24.957-10.722-49.174-23.204-73.694-35.106a3976 3976 0 0 0-44.694-20.292 496 496 0 0 0-4.895-1.981c-23.591-9.385-47.86-18.082-72.68-23.818 226.469 211.194 357.472 170.789 357.472 170.789-44.259-29.445-103.397-61.03-161.492-89.614zm784.534-636.166c.714-.105 1.245.219 1.503.681 136.016-29.714 285.278-67.243 394.987-108.212 0 0-217.681-127.198-711.67 156.385a2191 2191 0 0 0 55.617-5.758c87.383-10.197 172.728-30.268 259.563-43.096m-388.968 289.178c-41.516-4.869-83.418-8.913-125.26-9.483 500.644 267.177 713.815 133.94 713.815 133.94-111.137-37.771-261.892-70.902-398.987-96.575-63.304-7.287-126.242-20.456-189.568-27.882m-360.123 183.554c475.835 309.414 699.728 195.021 699.728 195.021-107.242-47.107-254.182-93.009-388.325-130.359-104.031-20.54-205.28-54.181-311.403-64.662M674.9 1394.462c-4.371-63.818-14.526-127.559-18.723-191.349-19.028-138.116-44.838-290.191-77.185-402.961 0 0-143.368 206.498 99.354 719.457 1.394-41.68-.599-83.58-3.446-125.147" style="fill:#586b29"/><path d="M1349.45 583.042c2.311 26.011-3.771 55.689 2.793 80.64 1.136 4.318 7.474 5.266 9.658 1.262 13.776-25.253 9.231-63.018 6.334-90.685-3.353-32.023-12.285-59.238-25.096-88.457-2.494-5.687-11.36-1.587-9.831 4.144 7.958 29.822 13.411 62.366 16.142 93.096M814.143 940.911c-16.885-36.077-27.488-74.199-40.443-111.696-1.553-4.492-8.949-4.086-8.712 1.179 1.758 39.043 14.033 76.738 29.783 112.206 14.612 32.903 33.564 74.583 62.729 97.02 3.853 2.964 10.264-2.009 8.455-6.5-12.928-32.099-36.962-60.478-51.812-92.209m834.205-51.777c-30.256 30.011-64.298 55.378-95.178 84.526-7.563 7.14 2.181 19.729 11.092 14.375 37.68-22.634 70.081-57.229 97.897-90.898 27.967-33.851 56.368-69.589 75.444-109.315 1.556-3.241-2.61-5.524-4.725-2.763-27.365 35.731-52.419 72.225-84.53 104.075m-893.044 383.485c1.094 42.57-6.911 83.513-10.87 125.639-.306 3.256 5.005 4.777 6.33 1.715 16.992-39.288 20.816-84.925 20.975-127.354.156-41.223-1.64-91.369-20.873-128.646-2.981-5.779-12.948-3.227-12.483 3.381 2.954 42.074 15.825 82.57 16.921 125.265m823.785 52.317c-36.081 2.172-71.629 10.976-107.823 13.418-17.914 1.209-35.97 1.397-53.875-.109-17.613-1.481-35.135-6.396-52.802-5.827-5.109.164-6.858 6.766-2.572 9.495 28.627 18.231 72.311 15.971 104.738 13.894 37.597-2.407 78.138-7.899 113.764-20.307 5.404-1.881 4.977-10.95-1.43-10.564m-131.933 154.163c20.972 8.939 44.719 10.963 66.463 18.266 23.609 7.928 45.802 23.041 69.857 28.347 3.797.837 6.122-3.444 3.671-6.309-14.771-17.267-40.383-26.653-61.326-34.543-22.957-8.649-51.105-18.983-75.903-15.96-4.595.561-8.417 7.788-2.762 10.199m-402.632 191.432c35.672 10.431 75.264 7.558 111.839 16.534 39.243 9.63 76.006 25.055 111.861 43.486 8.005 4.115 14.598-7.14 7.049-12.058-34.858-22.708-73.623-39.278-113.752-50.134-35.003-9.47-81.476-21.298-116.997-10.747-6.346 1.884-6.393 11.05 0 12.919m-328.905 118.498c19.7 11.277 42.318 17.183 62.717 27.241 20.458 10.087 38.735 25.246 59.407 34.327 6.085 2.673 11.48-3.901 7.089-9.188-15.313-18.435-40.348-30.991-61.422-41.821-20.059-10.307-41.794-20.942-64.506-22.692-6.598-.508-8.642 9.066-3.285 12.133m-155.761-161.122c23.007-37.81 23.375-94.296 13.79-136.281-1.098-4.805-8.163-3.529-8.342 1.129-.862 22.502-1.494 44.843-3.732 67.264-2.204 22.085-8.263 43.758-8.925 65.936-.116 3.93 5.271 5.139 7.209 1.952" style="fill:#fff"/></svg>