<?xml version="1.0" encoding="utf-8"?>
<!-- Generator: Adobe Illustrator 27.5.0, SVG Export Plug-In . SVG Version: 6.00 Build 0)  -->
<svg version="1.1" id="BASE" xmlns="http://www.w3.org/2000/svg" xmlns:xlink="http://www.w3.org/1999/xlink" x="0px" y="0px"
	 viewBox="0 0 2122 2122" style="enable-background:new 0 0 2122 2122;" xml:space="preserve">
<g>
	<path style="fill:#8FA549;" d="M1037.561,1489.583c-39.946,1.972-81.222,9.906-118.402,16.823
		c60.018-60.086,114.429-125.064,161.962-194.653c17.208,4.609,36.46,1.529,54.157,0.756c22.083-0.965,44.139-2.659,66.156-4.571
		c13.828-1.201,27.642-2.562,41.44-4.066c45.959,32.171,326.566,199.422,737.018-180.033c0,0-217.68-127.198-711.669,156.385
		c-22.239,2.02-44.505,3.716-66.789,5.116c-22.037,1.385-44.096,2.302-66.156,3.245c-12.755,0.545-26.394-0.361-39.383,1.048
		c20.903-32.011,40.364-64.965,58.262-98.836c1.167,0.018,2.436-0.194,3.8-0.693c41.167-15.052,78.708-39.843,115.407-63.499
		c21.383-13.783,42.288-28.201,62.789-43.185c70,2.217,381.345-18.334,527.122-540.15c0,0-253.25,5.918-525.803,510.03
		c-22.963,15.96-46.303,31.405-69.874,46.402c-31.391,19.973-64.851,37.154-96.217,57.231
		c28.394-58.071,52.249-118.719,70.997-181.818c5.56-18.71,10.736-37.627,15.481-56.703c0.73,2.105,1.466,4.215,2.207,6.33
		c0,0,294.392-240.093-23.628-763.647c0,0-168.158,188.229,11.953,729.468c-2.497,11.078-5.16,22.135-8.003,33.17
		c-13.073,50.744-29.497,100.492-49.153,148.887c-0.651-3.728-1.361-7.202-2.002-10.242c-0.936-4.448-2.016-8.869-3.212-13.263
		c9.298-30.901,46.624-202.857-216.765-350.854c0,0-29.398,133.895,199.83,342.055c1.25,3.912,2.424,7.845,3.51,11.802
		c3.358,12.222,6.117,24.855,6.11,37.586c-0.005,7.369-2.015,13.871-3.549,20.588c-31.634,70.654-70.315,138.117-115.679,201.209
		c-3.302-13.684-8.677-27.111-13.051-40.214c-6.939-20.793-14.039-41.53-21.304-62.211c-0.387-1.103-0.779-2.203-1.169-3.306
		c1.267,0.409,1.93,0.599,1.93,0.599C984.01,606.48,745.5,495.667,745.5,495.667c-71.756,512.295,177.627,666.177,256.938,701.652
		c1.901,5.481,3.8,10.962,5.694,16.443c7.163,20.709,14.162,41.474,21,62.294c5.594,17.031,9.879,35.742,18.314,51.839
		c-61.415,81.969-134.255,153.986-211.784,220.748c-50.579,43.556-103.56,84.036-158.793,121.136
		c1.016-4.777,2.005-9.56,3.057-14.312c4.097-18.525,8.133-37.056,11.969-55.636c3.286-15.915,5.44-31.9,6.704-48.003
		c28.152-32.757,235.467-301.759-119.608-751.677c0,0-143.368,206.498,99.354,719.458c-0.046,1.358-0.095,2.716-0.147,4.073
		c-2.091,53.814-17.436,115.809-28.069,163.679c-49.064,31.576-99.846,60.515-152.244,86.614c3.642-7.156,6.498-14.326,8.604-19.778
		c1.563-4.049,3.005-8.141,4.348-12.267c24.622-20.62,150.424-143.875,11.368-412.295c0,0-98.05,95.797-20.656,395.598
		c-0.706,2.544-1.442,5.079-2.211,7.603c-3.876,12.727-8.499,25.466-15.505,36.838c-5.084,8.253-12.158,13.179-18.253,19.844
		c-102.3,47.445-208.242,80.365-315.486,115.462c-15.098,4.941-8.889,26.451,6.502,23.586
		c105.615-19.658,209.489-60.771,306.662-105.801c27.231-12.619,54.114-25.977,80.609-40.062c3.309-0.947,6.726-1.701,10.426-1.961
		c12.837-0.902,25.884,0.967,38.443,3.424c3.401,0.667,6.788,1.393,10.168,2.174c226.469,211.193,357.472,170.789,357.472,170.789
		c-169.583-250.573-338.095-198.595-367.756-186.867c-3.789-0.703-7.597-1.326-11.419-1.853c-2.66-0.367-5.709-0.77-9.003-1.126
		c32.113-17.892,63.62-36.866,94.44-56.896c1.873-0.005,3.505-0.025,4.28-0.061c9.4-0.43,18.813-1.499,28.191-2.246
		c19.735-1.573,39.451-3.3,59.172-5.031c23.342-2.05,46.48-1.634,69.824,0.466c2.07,0.186,4.137,0.382,6.203,0.587
		c475.835,309.416,699.728,195.022,699.728,195.022C1135.825,1486.92,841.451,1656.26,805.2,1679.77
		c-15.604-0.914-31.206-0.97-46.917,0.105c-17.406,1.191-34.793,2.584-52.179,4.022c36.599-25.36,72.144-52.251,106.491-80.633
		c27.44-22.674,54.029-46.223,79.68-70.626c0.552,0.232,11.238-0.897,13.405-1.184c9.597-1.271,19.158-3.205,28.705-4.802
		c19.389-3.245,38.758-6.566,58.113-10.012c23.645-4.211,47.22-5.781,71.25-5.63c1.809,0.011,3.616,0.032,5.425,0.056
		c500.644,267.178,713.816,133.94,713.816,133.94C1349.002,1267.14,1069.817,1464.291,1037.561,1489.583z"/>
	<g>
		<g>
			<path style="fill:#728937;" d="M1263.134,814.106v-0.002c10.87-66.804,17.01-134.249,21.506-202.081
				c0.179-2.705,4.023-2.7,4.201,0c6.506,98.325-5.177,198.408-28.123,294.646v0.002c-0.935,3.92-1.888,7.835-2.858,11.743
				c0.73,2.105,1.466,4.215,2.207,6.33c0,0,294.392-240.093-23.628-763.646c-0.045,0.05-168.134,188.3,11.953,729.467
				C1254.115,865.181,1258.972,839.69,1263.134,814.106z"/>
			<path style="fill:#728937;" d="M1374.122,1027.131c33.673-24.739,65.745-51.135,97.016-78.445
				c37.116-32.415,73.108-66.119,109.315-99.874c2.745-2.559,6.238,1.21,4.018,4.018
				c-57.602,72.866-127.952,136.405-200.497,194.095c-15.713,12.496-31.642,24.673-47.822,36.497
				c70,2.217,381.344-18.334,527.122-540.149c0,0,0-0.001,0-0.001c-0.177,0.005-253.345,6.093-525.803,510.03
				C1349.806,1044.73,1362.031,1036.012,1374.122,1027.131z"/>
			<path style="fill:#728937;" d="M1169.085,1040.317c-7.917-24.817-18.883-48.749-30.538-71.959
				c-0.679-1.353-1.366-2.702-2.058-4.049c-3.245-5.891-6.612-11.972-10.09-18.213c3.478,6.241,6.846,12.322,10.09,18.213
				c-6.981-13.59-14.551-26.848-22.318-39.988c-0.003-0.005-0.005-0.008-0.007-0.012c-14.263-24.136-29.173-47.875-42.242-72.546
				l0.022-0.021c-10.017-16.698-20.312-33.468-30.71-49.889c10.398,16.421,20.694,33.191,30.71,49.889l0.353-0.353
				c13.639,9.074,25.128,28.492,34.653,41.427c18.77,25.493,34.508,53.603,48.784,81.799c12.028,23.755,23.252,48.652,30.287,74.501
				c9.298-30.901,46.624-202.857-216.765-350.854C969.255,698.262,939.857,832.157,1169.085,1040.317z"/>
			<path style="fill:#728937;" d="M501.55,1725.233c7.167-25.798,11.269-52.617,14.251-79.139c0.043-0.385,0.082-0.771,0.126-1.156
				c0-0.001,0-0.002,0-0.004c1.822-16.562,2.818-33.185,3.572-49.816c1.222-26.998,1.815-54.013,4.299-80.805l0.028-0.008
				c0.328-8.087,0.624-16.209,0.879-24.336c-0.255,8.128-0.549,16.25-0.879,24.336l0.482-0.13
				c6.486,15.269,5.223,37.212,6.147,53.42c1.797,31.512-0.457,63.508-3.976,94.824c-3.001,26.741-7.286,53.817-15.64,79.511
				c24.622-20.62,150.424-143.875,11.368-412.295C522.206,1329.635,424.156,1425.432,501.55,1725.233z"/>
			<path style="fill:#728937;" d="M1268.223,1280.225c18.562-1.687,37.105-3.598,55.617-5.759
				c87.382-10.196,172.727-30.267,259.563-43.095c0.714-0.105,1.245,0.22,1.503,0.682c0.363,0.65,0.188,1.571-0.781,1.939
				c-81.778,31.092-171.501,46.159-257.77,59.054c-27.756,4.15-55.586,7.785-83.481,10.827
				c45.959,32.171,326.566,199.422,737.017-180.031l0.001-0.001C1979.891,1123.84,1762.212,996.642,1268.223,1280.225z"/>
			<path style="fill:#728937;" d="M1002.439,1197.318c-13.473-38.837-27.097-77.649-41.075-116.297
				c-30.6-84.608-68.408-166.422-100.356-250.512c-1.313-3.456-2.616-6.916-3.91-10.38c-0.249-0.67,0.794-1.069,1.13-0.476
				c45.686,81.103,79.265,167.478,114.679,253.339c16.229,39.346,31.684,78.86,46.095,118.871c0,0.001,0,0.001,0,0.001
				c1.667,4.628,3.315,9.266,4.953,13.907c1.267,0.409,1.93,0.599,1.93,0.599C984.01,606.48,745.5,495.667,745.5,495.667
				C673.745,1007.961,923.128,1161.844,1002.439,1197.318z"/>
			<path style="fill:#728937;" d="M592.621,1770.263c26.971,5.009,53.153,14.259,78.45,24.633
				c28.827,11.823,57.781,24.886,84.321,41.32c13.726,8.499,33.563,17.996,43.808,30.891l-0.316,0.408l-0.017,0.022
				c-24.957-10.722-49.174-23.205-73.693-35.107c-2.492-1.15-4.966-2.288-7.423-3.417c2.457,1.128,4.931,2.266,7.423,3.417
				c-14.714-7.142-29.538-14.073-44.694-20.292c-1.629-0.668-3.259-1.33-4.895-1.981c-23.592-9.385-47.861-18.081-72.68-23.817
				c226.393,211.122,357.383,170.817,357.472,170.789c0,0,0,0-0.002-0.001C790.793,1706.557,622.282,1758.535,592.621,1770.263z"/>
			<path style="fill:#728937;" d="M1037.561,1489.583c8.814-0.434,17.561-0.582,26.187-0.361
				c44.628,1.144,89.018,6.714,133.098,13.499c69.953,10.767,143.017,22.42,210.326,44.407c1.896,0.62,1.674,3.835-0.493,3.64
				c-7.565-0.682-15.124-1.469-22.677-2.338c-63.302-7.286-126.241-20.455-189.568-27.881c-41.515-4.869-83.418-8.913-125.26-9.484
				c500.644,267.178,713.816,133.94,713.816,133.94C1349.002,1267.14,1069.817,1464.291,1037.561,1489.583z"/>
			<path style="fill:#728937;" d="M805.2,1679.77c8.863,0.521,17.727,1.316,26.612,2.342c43.802,5.058,86.974,14.073,129.781,24.509
				c69.15,16.857,141.194,34.934,206.751,62.744c2.079,0.882,0.46,3.723-1.428,3.387c-7.081-1.26-14.148-2.593-21.203-3.986
				c-104.031-20.54-205.279-54.181-311.403-64.662c475.835,309.416,699.728,195.022,699.728,195.022
				C1135.825,1486.92,841.451,1656.26,805.2,1679.77z"/>
			<path style="fill:#728937;" d="M674.899,1394.462c-4.37-63.818-14.526-127.559-18.722-191.349
				c-0.493-7.484-0.905-14.969-1.214-22.455c-0.087-2.128,3.099-2.469,3.641-0.492c18.629,67.952,26.651,141.069,34.109,211.122
				c4.747,44.574,8.212,89.396,7.195,134.255c-0.2,8.802-0.624,17.561-1.308,26.285c28.152-32.757,235.467-301.758-119.608-751.677
				c0,0,0,0,0,0.001c-0.027,0.038-143.345,206.546,99.354,719.457C679.74,1477.93,677.747,1436.029,674.899,1394.462z"/>
		</g>
		<path style="fill:#586B29;" d="M1236.438,161.097c0,0-168.158,188.229,11.953,729.468c5.725-25.383,10.581-50.874,14.744-76.459
			C1266.274,653.589,1267.032,354.251,1236.438,161.097z"/>
		<path style="fill:#586B29;" d="M1257.858,918.414c0.731,2.105,1.467,4.215,2.208,6.33c0,0,0.259-6.374,0.652-18.075
			C1259.782,910.59,1258.83,914.505,1257.858,918.414z"/>
		<path style="fill:#586B29;" d="M857.098,820.129c-0.251-0.67,0.794-1.069,1.129-0.476
			c45.685,81.103,79.264,167.479,114.678,253.34c16.229,39.346,31.685,78.859,46.095,118.87c4.442,9.416,6.884,14.507,6.884,14.507
			c-41.874-599.889-280.384-710.704-280.384-710.704c25.137,98.598,69.439,220.239,115.507,334.843
			C859.695,827.053,858.39,823.593,857.098,820.129z"/>
		<path style="fill:#586B29;" d="M1471.138,948.686c122.592-112.991,291.858-276.526,392.137-405.414
			c0,0-253.25,5.918-525.804,510.03c12.334-8.572,24.558-17.289,36.65-26.171C1407.796,1002.392,1439.867,975.996,1471.138,948.686z
			"/>
		<path style="fill:#586B29;" d="M1136.488,964.31c-6.92-12.567-14.404-26.002-22.324-40.001
			c-14.263-24.136-29.174-47.875-42.241-72.546l0.021-0.021c-33.302-55.516-69.679-111.822-102.688-153.481
			c0,0-29.398,133.895,199.831,342.055c-7.917-24.817-18.882-48.749-30.539-71.959
			C1137.868,967.004,1137.18,965.656,1136.488,964.31z"/>
		<path style="fill:#586B29;" d="M515.926,1644.938c1.208-15.509,2.425-32.255,3.572-49.82c1.222-26.998,1.816-54.014,4.299-80.806
			l0.028-0.008c2.627-64.688,3.116-131.726-1.619-184.67c0,0-98.05,95.798-20.655,395.599c7.166-25.798,11.269-52.617,14.251-79.139
			C515.844,1645.709,515.883,1645.323,515.926,1644.938z"/>
		<path style="fill:#586B29;" d="M798.868,1867.537c-24.957-10.722-49.174-23.204-73.694-35.106
			c-15.694-7.245-30.721-14.05-44.694-20.292c-1.628-0.668-3.259-1.33-4.895-1.981c-23.591-9.385-47.86-18.082-72.68-23.818
			c226.469,211.194,357.472,170.789,357.472,170.789c-44.259-29.445-103.397-61.03-161.492-89.614L798.868,1867.537z"/>
		<path style="fill:#586B29;" d="M1583.402,1231.371c0.714-0.105,1.245,0.219,1.503,0.681
			c136.016-29.714,285.278-67.243,394.987-108.212c0,0-217.681-127.198-711.67,156.385c18.562-1.687,37.105-3.598,55.617-5.758
			C1411.222,1264.27,1496.567,1244.199,1583.402,1231.371z"/>
		<path style="fill:#586B29;" d="M1194.434,1520.549c-41.516-4.869-83.418-8.913-125.26-9.483
			c500.644,267.177,713.815,133.94,713.815,133.94c-111.137-37.771-261.892-70.902-398.987-96.575
			C1320.698,1541.144,1257.76,1527.975,1194.434,1520.549z"/>
		<path style="fill:#586B29;" d="M834.311,1704.103c475.835,309.414,699.728,195.021,699.728,195.021
			c-107.242-47.107-254.182-93.009-388.325-130.359C1041.683,1748.225,940.434,1714.584,834.311,1704.103z"/>
		<path style="fill:#586B29;" d="M674.9,1394.462c-4.371-63.818-14.526-127.559-18.723-191.349
			c-19.028-138.116-44.838-290.191-77.185-402.961c0,0-143.368,206.498,99.354,719.457
			C679.74,1477.929,677.747,1436.029,674.9,1394.462z"/>
		<path style="fill:#FFFFFF;" d="M1349.45,583.042c2.311,26.011-3.771,55.689,2.793,80.64c1.136,4.318,7.474,5.266,9.658,1.262
			c13.776-25.253,9.231-63.018,6.334-90.685c-3.353-32.023-12.285-59.238-25.096-88.457c-2.494-5.687-11.36-1.587-9.831,4.144
			C1341.266,519.768,1346.719,552.312,1349.45,583.042z"/>
		<path style="fill:#FFFFFF;" d="M814.143,940.911c-16.885-36.077-27.488-74.199-40.443-111.696
			c-1.553-4.492-8.949-4.086-8.712,1.179c1.758,39.043,14.033,76.738,29.783,112.206c14.612,32.903,33.564,74.583,62.729,97.02
			c3.853,2.964,10.264-2.009,8.455-6.5C853.027,1001.021,828.993,972.642,814.143,940.911z"/>
		<path style="fill:#FFFFFF;" d="M1648.348,889.134c-30.256,30.011-64.298,55.378-95.178,84.526
			c-7.563,7.14,2.181,19.729,11.092,14.375c37.68-22.634,70.081-57.229,97.897-90.898c27.967-33.851,56.368-69.589,75.444-109.315
			c1.556-3.241-2.61-5.524-4.725-2.763C1705.513,820.79,1680.459,857.284,1648.348,889.134z"/>
		<path style="fill:#FFFFFF;" d="M755.304,1272.619c1.094,42.57-6.911,83.513-10.87,125.639c-0.306,3.256,5.005,4.777,6.33,1.715
			c16.992-39.288,20.816-84.925,20.975-127.354c0.156-41.223-1.64-91.369-20.873-128.646c-2.981-5.779-12.948-3.227-12.483,3.381
			C741.337,1189.428,754.208,1229.924,755.304,1272.619z"/>
		<path style="fill:#FFFFFF;" d="M1579.089,1324.936c-36.081,2.172-71.629,10.976-107.823,13.418
			c-17.914,1.209-35.97,1.397-53.875-0.109c-17.613-1.481-35.135-6.396-52.802-5.827c-5.109,0.164-6.858,6.766-2.572,9.495
			c28.627,18.231,72.311,15.971,104.738,13.894c37.597-2.407,78.138-7.899,113.764-20.307
			C1585.923,1333.619,1585.496,1324.55,1579.089,1324.936z"/>
		<path style="fill:#FFFFFF;" d="M1447.156,1479.099c20.972,8.939,44.719,10.963,66.463,18.266
			c23.609,7.928,45.802,23.041,69.857,28.347c3.797,0.837,6.122-3.444,3.671-6.309c-14.771-17.267-40.383-26.653-61.326-34.543
			c-22.957-8.649-51.105-18.983-75.903-15.96C1445.323,1469.461,1441.501,1476.688,1447.156,1479.099z"/>
		<path style="fill:#FFFFFF;" d="M1044.524,1670.531c35.672,10.431,75.264,7.558,111.839,16.534
			c39.243,9.63,76.006,25.055,111.861,43.486c8.005,4.115,14.598-7.14,7.049-12.058c-34.858-22.708-73.623-39.278-113.752-50.134
			c-35.003-9.47-81.476-21.298-116.997-10.747C1038.178,1659.496,1038.131,1668.662,1044.524,1670.531z"/>
		<path style="fill:#FFFFFF;" d="M715.619,1789.029c19.7,11.277,42.318,17.183,62.717,27.241
			c20.458,10.087,38.735,25.246,59.407,34.327c6.085,2.673,11.48-3.901,7.089-9.188c-15.313-18.435-40.348-30.991-61.422-41.821
			c-20.059-10.307-41.794-20.942-64.506-22.692C712.306,1776.388,710.262,1785.962,715.619,1789.029z"/>
		<path style="fill:#FFFFFF;" d="M559.858,1627.907c23.007-37.81,23.375-94.296,13.79-136.281c-1.098-4.805-8.163-3.529-8.342,1.129
			c-0.862,22.502-1.494,44.843-3.732,67.264c-2.204,22.085-8.263,43.758-8.925,65.936
			C552.533,1629.885,557.92,1631.094,559.858,1627.907z"/>
	</g>
</g>
</svg>

